<svg width="16" height="16" viewBox="0 0 16 16" xmlns="http://www.w3.org/2000/svg">
  <!-- Pixelated heart design -->
  <rect x="3" y="2" width="2" height="2" fill="#e11d48"/>
  <rect x="5" y="2" width="2" height="2" fill="#e11d48"/>
  <rect x="9" y="2" width="2" height="2" fill="#e11d48"/>
  <rect x="11" y="2" width="2" height="2" fill="#e11d48"/>

  <rect x="1" y="4" width="2" height="2" fill="#e11d48"/>
  <rect x="3" y="4" width="2" height="2" fill="#f43f5e"/>
  <rect x="5" y="4" width="2" height="2" fill="#f43f5e"/>
  <rect x="7" y="4" width="2" height="2" fill="#e11d48"/>
  <rect x="9" y="4" width="2" height="2" fill="#f43f5e"/>
  <rect x="11" y="4" width="2" height="2" fill="#f43f5e"/>
  <rect x="13" y="4" width="2" height="2" fill="#e11d48"/>

  <rect x="1" y="6" width="2" height="2" fill="#e11d48"/>
  <rect x="3" y="6" width="2" height="2" fill="#f43f5e"/>
  <rect x="5" y="6" width="2" height="2" fill="#fb7185"/>
  <rect x="7" y="6" width="2" height="2" fill="#f43f5e"/>
  <rect x="9" y="6" width="2" height="2" fill="#fb7185"/>
  <rect x="11" y="6" width="2" height="2" fill="#f43f5e"/>
  <rect x="13" y="6" width="2" height="2" fill="#e11d48"/>

  <rect x="1" y="8" width="2" height="2" fill="#e11d48"/>
  <rect x="3" y="8" width="2" height="2" fill="#f43f5e"/>
  <rect x="5" y="8" width="2" height="2" fill="#f43f5e"/>
  <rect x="7" y="8" width="2" height="2" fill="#f43f5e"/>
  <rect x="9" y="8" width="2" height="2" fill="#f43f5e"/>
  <rect x="11" y="8" width="2" height="2" fill="#f43f5e"/>
  <rect x="13" y="8" width="2" height="2" fill="#e11d48"/>

  <rect x="3" y="10" width="2" height="2" fill="#e11d48"/>
  <rect x="5" y="10" width="2" height="2" fill="#f43f5e"/>
  <rect x="7" y="10" width="2" height="2" fill="#f43f5e"/>
  <rect x="9" y="10" width="2" height="2" fill="#f43f5e"/>
  <rect x="11" y="10" width="2" height="2" fill="#e11d48"/>

  <rect x="5" y="12" width="2" height="2" fill="#e11d48"/>
  <rect x="7" y="12" width="2" height="2" fill="#f43f5e"/>
  <rect x="9" y="12" width="2" height="2" fill="#e11d48"/>

  <rect x="7" y="14" width="2" height="2" fill="#e11d48"/>
</svg>
